<?xml version="1.0" encoding="UTF-8"?>
<svg width="40px" height="36px" viewBox="0 0 40 36" version="1.1" xmlns="http://www.w3.org/2000/svg" xmlns:xlink="http://www.w3.org/1999/xlink">
    <title>logo/zstack/white</title>
    <defs>
        <polygon id="path-1" points="1.04320217e-15 0 6.14931062 0 6.14931062 9.40419928 1.04320217e-15 9.40419928"></polygon>
        <polygon id="path-3" points="-4.1728087e-15 0 6.50960114 0 6.50960114 6.84132095 -4.1728087e-15 6.84132095"></polygon>
        <polygon id="path-5" points="0 0 6.29201738 0 6.29201738 6.84132095 0 6.84132095"></polygon>
    </defs>
    <g id="logo/zstack/white" stroke="none" stroke-width="1" fill="none" fill-rule="evenodd">
        <g id="编组" transform="translate(0.000000, 0.580000)">
            <polygon id="Fill-1" fill="#FEFEFE" points="18.3850645 0 15.9235197 4.26358467 17.5379267 4.26358467 7.69204116 21.3164552 14.229244 21.3164552 16.6910824 17.0531641 15.0769692 17.0531641 22.4613099 4.26358467 19.9997651 0"></polygon>
            <polygon id="Fill-2" fill="#FEFEFE" points="32.3076358 21.3165139 15.8705186 21.3165139 18.3320634 17.0532229 24.9221206 17.0532229 24.1014099 15.6326152 17.5380735 15.6317343 23.2818737 5.68425102 26.5559074 11.3813633 24.9150733 11.3813633 24.0955372 12.8022645 27.3915935 12.8019709"></polygon>
            <g transform="translate(0.000000, 25.431842)">
                <path d="M-1.94953341e-15,8.18740393 L4.08740349,2.39632838 C4.45885215,1.88393477 4.77920827,1.57620497 4.77920827,1.57620497 L4.77920827,1.55007143 C4.77920827,1.55007143 4.51023833,1.57620497 4.08740349,1.57620497 L1.8836705,1.57620497 C1.70455296,1.57620497 1.6017806,1.67839006 1.6017806,1.85780123 L1.6017806,2.4089547 L0.077226086,2.4089547 L0.077226086,1.02534513 C0.077226086,0.423099115 0.332982439,0.153835538 0.948442044,0.153835538 L6.8552099,0.153835538 L6.8552099,1.20446267 L2.76780641,7.00845817 C2.39635775,7.5334781 2.07570799,7.82858158 2.07570799,7.82858158 L2.07570799,7.85412785 C2.07570799,7.85412785 2.34497157,7.82858158 2.76780641,7.82858158 L5.25284202,7.82858158 C5.43254683,7.82858158 5.53531919,7.72610286 5.53531919,7.54669168 L5.53531919,6.99583185 L7.04695375,6.99583185 L7.04695375,8.37944142 C7.04695375,8.99460739 6.79149104,9.25095101 6.17603143,9.25095101 L-1.94953341e-15,9.25095101 L-1.94953341e-15,8.18740393 Z" id="Fill-3" fill="#FEFEFE"></path>
                <g transform="translate(7.726426, 0.000000)">
                    <mask id="mask-2" fill="white">
                        <use xlink:href="#path-1"></use>
                    </mask>
                    <g id="Clip-6"></g>
                    <path d="M0.947854774,6.8161564 C0.947854774,6.8161564 1.88308323,7.89232981 3.15070685,7.89232981 C3.84368618,7.89232981 4.45855851,7.52146841 4.45855851,6.8161564 C4.45855851,5.26576198 0.179117538,5.39437424 0.179117538,2.56284897 C0.179117538,1.08909336 1.45995475,0 3.21560026,0 C4.27885371,0 5.91910054,0.499767294 5.91910054,1.7938181 L5.91910054,2.63919415 L4.40717234,2.63919415 L4.40717234,2.22957289 C4.40717234,1.80673805 3.80492632,1.52455452 3.20297394,1.52455452 C2.4342367,1.52455452 1.87045691,1.92213673 1.87045691,2.49854283 C1.87045691,4.04893726 6.14931062,3.74120746 6.14931062,6.72659763 C6.14931062,8.17451334 5.03467099,9.40425801 3.12633512,9.40425801 C1.11434599,9.40425801 1.04320217e-15,7.9953958 1.04320217e-15,7.9953958 L0.947854774,6.8161564 Z" id="Fill-5" fill="#FEFEFE" mask="url(#mask-2)"></path>
                </g>
                <path d="M15.4382287,4.01011867 L14.5937335,4.01011867 L14.5937335,2.71606787 L15.4769885,2.71606787 L15.4769885,0.935756999 L17.0655556,0.935756999 L17.0655556,2.71606787 L18.5525247,2.71606787 L18.5525247,4.01011867 L17.0655556,4.01011867 L17.0655556,6.65019373 C17.0655556,7.72607349 17.9109316,7.87935112 18.3596064,7.87935112 C18.5387239,7.87935112 18.6544162,7.85409849 18.6544162,7.85409849 L18.6544162,9.27646792 C18.6544162,9.27646792 18.4494588,9.31493414 18.1546489,9.31493414 C17.2452604,9.31493414 15.4382287,9.04567057 15.4382287,6.85485754 L15.4382287,4.01011867 Z" id="Fill-7" fill="#FEFEFE"></path>
                <g transform="translate(19.474070, 2.562878)">
                    <mask id="mask-4" fill="white">
                        <use xlink:href="#path-3"></use>
                    </mask>
                    <g id="Clip-10"></g>
                    <path d="M2.62686146,5.57319814 C3.49866469,5.57319814 4.11324339,4.65059601 4.11324339,3.8563125 L4.11324339,3.70274123 L3.8313535,3.70274123 C2.98539018,3.70274123 1.64112774,3.81784627 1.64112774,4.72782209 C1.64112774,5.16328325 1.96001568,5.57319814 2.62686146,5.57319814 M3.88215241,2.58780797 L4.08769712,2.58780797 L4.08769712,2.53671542 C4.08769712,1.6017806 3.71595482,1.25558458 2.88320509,1.25558458 C2.58780797,1.25558458 2.01198913,1.33222339 2.01198913,1.69104574 L2.01198913,2.03694813 L0.500354565,2.03694813 L0.500354565,1.34514335 C0.500354565,0.127731359 2.21694657,0 2.89641868,0 C5.07401812,0 5.71414309,1.13989227 5.71414309,2.60043429 L5.71414309,5.03496462 C5.71414309,5.2143758 5.81662181,5.31656088 5.99750116,5.31656088 L6.50960114,5.31656088 L6.50960114,6.68783777 L5.04817821,6.68783777 C4.4459322,6.68783777 4.21601575,6.35426806 4.21601575,5.96989944 C4.21601575,5.80370186 4.22864207,5.68859682 4.22864207,5.68859682 L4.20221489,5.68859682 C4.20221489,5.68859682 3.70274123,6.84140904 2.22927926,6.84140904 C1.06413436,6.84140904 -4.1728087e-15,6.11113803 -4.1728087e-15,4.80387364 C-4.1728087e-15,2.75459282 2.81889896,2.58780797 3.88215241,2.58780797" id="Fill-9" fill="#FEFEFE" mask="url(#mask-4)"></path>
                </g>
                <g transform="translate(26.635571, 2.562878)">
                    <mask id="mask-6" fill="white">
                        <use xlink:href="#path-5"></use>
                    </mask>
                    <g id="Clip-12"></g>
                    <path d="M3.57589078,0 C4.4218541,0 5.94611498,0.345902393 5.94611498,1.4728747 L5.94611498,2.24190558 L4.5108256,2.24190558 L4.5108256,1.88308323 C4.5108256,1.52426088 3.97229845,1.37039598 3.57589078,1.37039598 C2.44774393,1.37039598 1.6408341,2.22927926 1.6408341,3.40822502 C1.6408341,4.74044841 2.62774237,5.41962688 3.6774886,5.41962688 C4.79300913,5.41962688 5.61254527,4.53519733 5.61254527,4.53519733 L6.29201738,5.66305055 C6.29201738,5.66305055 5.31773543,6.84140904 3.53625001,6.84140904 C1.38449048,6.84140904 0,5.31656088 0,3.42026407 C0,1.57564706 1.33339793,0 3.57589078,0" id="Fill-11" fill="#FEFEFE" mask="url(#mask-6)"></path>
                </g>
                <path d="M34.0935258,1.81948182 C34.0935258,1.62744433 33.9907534,1.53788556 33.8119295,1.53788556 L33.298655,1.53788556 L33.298655,0.153982355 L34.8493431,0.153982355 C35.4515891,0.153982355 35.7199718,0.294927303 35.7199718,0.89717332 L35.7199718,5.02245576 L36.2074064,5.02245576 C36.4120702,5.02245576 36.6816274,4.98428317 36.822866,4.77903209 L38.1550894,2.71624405 L39.9615338,2.71624405 L38.3086606,5.17632066 C38.0270644,5.58652919 37.821226,5.68871427 37.821226,5.68871427 L37.821226,5.71455418 C37.821226,5.71455418 38.052317,5.80411295 38.2825271,6.22694779 L39.025718,7.63639727 C39.1281968,7.82843476 39.256809,7.87952731 39.5642452,7.87952731 L40,7.87952731 L40,9.25080419 L38.7958016,9.25080419 C38.2446481,9.25080419 38.0270644,9.16124542 37.7701335,8.6870244 L36.6816274,6.63656905 C36.5533088,6.40606533 36.2843388,6.39373265 36.079675,6.39373265 L35.7199718,6.39373265 L35.7199718,9.25080419 L34.0935258,9.25080419 L34.0935258,1.81948182 Z" id="Fill-13" fill="#FEFEFE"></path>
            </g>
        </g>
    </g>
</svg>